<?xml version="1.0" encoding="UTF-8"?>
<svg xmlns="http://www.w3.org/2000/svg" width="1120" height="560" viewBox="0 0 1120 560" role="img" aria-label="GitHub visual dashboard">
  <defs>
    <linearGradient id="header-gradient" x1="0%" y1="0%" x2="100%" y2="0%">
      <stop offset="0%" stop-color="#1d4ed8" />
      <stop offset="100%" stop-color="#0f766e" />
    </linearGradient>
  </defs>
  <rect x="0" y="0" width="1120" height="560" rx="18" fill="#f8fafc" />
  <rect x="0" y="0" width="1120" height="88" rx="18" fill="url(#header-gradient)" />
  <text x="38" y="54" fill="#f8fafc" font-family="Segoe UI, Inter, Arial, sans-serif" font-size="30" font-weight="700">GitHub Visual Dashboard</text>
  <text x="780" y="54" fill="#f8fafc" font-family="Segoe UI, Inter, Arial, sans-serif" font-size="16">Updated: 2026-04-02 11:22 UTC</text>
  <rect x="48" y="116" width="246" height="110" rx="14" fill="#ffffff" stroke="#d0d7de" />
  <text x="66" y="152" fill="#6b7280" font-family="Segoe UI, Inter, Arial, sans-serif" font-size="15">Followers</text>
  <text x="66" y="196" fill="#111827" font-family="Segoe UI, Inter, Arial, sans-serif" font-size="36" font-weight="700">2</text>
  <rect x="316" y="116" width="246" height="110" rx="14" fill="#ffffff" stroke="#d0d7de" />
  <text x="334" y="152" fill="#6b7280" font-family="Segoe UI, Inter, Arial, sans-serif" font-size="15">Public Repos</text>
  <text x="334" y="196" fill="#111827" font-family="Segoe UI, Inter, Arial, sans-serif" font-size="36" font-weight="700">18</text>
  <rect x="584" y="116" width="246" height="110" rx="14" fill="#ffffff" stroke="#d0d7de" />
  <text x="602" y="152" fill="#6b7280" font-family="Segoe UI, Inter, Arial, sans-serif" font-size="15">Contrib (30d)</text>
  <text x="602" y="196" fill="#111827" font-family="Segoe UI, Inter, Arial, sans-serif" font-size="36" font-weight="700">16</text>
  <rect x="852" y="116" width="246" height="110" rx="14" fill="#ffffff" stroke="#d0d7de" />
  <text x="870" y="152" fill="#6b7280" font-family="Segoe UI, Inter, Arial, sans-serif" font-size="15">Contrib (12m)</text>
  <text x="870" y="196" fill="#111827" font-family="Segoe UI, Inter, Arial, sans-serif" font-size="36" font-weight="700">80</text>
  <text x="48" y="232" fill="#111827" font-family="Segoe UI, Inter, Arial, sans-serif" font-size="20" font-weight="600">Contribution Trend (Last 14 Days)</text>
  <rect x="48" y="252" width="670" height="230" rx="12" fill="#ffffff" stroke="#d0d7de" />
  <line x1="66" y1="454" x2="700" y2="454" stroke="#d1d5db" />
  <line x1="66" y1="272" x2="66" y2="454" stroke="#d1d5db" />
  <rect x="76" y="452" width="40" height="2" rx="4" fill="#2563eb" />
  <rect x="124" y="452" width="40" height="2" rx="4" fill="#2563eb" />
  <rect x="172" y="452" width="40" height="2" rx="4" fill="#2563eb" />
  <rect x="220" y="452" width="40" height="2" rx="4" fill="#2563eb" />
  <rect x="268" y="452" width="40" height="2" rx="4" fill="#2563eb" />
  <rect x="316" y="452" width="40" height="2" rx="4" fill="#2563eb" />
  <rect x="364" y="452" width="40" height="2" rx="4" fill="#2563eb" />
  <rect x="412" y="452" width="40" height="2" rx="4" fill="#2563eb" />
  <rect x="460" y="452" width="40" height="2" rx="4" fill="#2563eb" />
  <rect x="508" y="452" width="40" height="2" rx="4" fill="#2563eb" />
  <rect x="556" y="452" width="40" height="2" rx="4" fill="#2563eb" />
  <rect x="604" y="452" width="40" height="2" rx="4" fill="#2563eb" />
  <rect x="652" y="428" width="40" height="24" rx="4" fill="#2563eb" />
  <rect x="700" y="284" width="40" height="168" rx="4" fill="#2563eb" />
  <text x="760" y="232" fill="#111827" font-family="Segoe UI, Inter, Arial, sans-serif" font-size="20" font-weight="600">Top Languages</text>
  <rect x="760" y="252" width="312" height="230" rx="12" fill="#ffffff" stroke="#d0d7de" />
  <text x="776" y="292" fill="#6b7280" font-family="Segoe UI, Inter, Arial, sans-serif" font-size="14">JavaScript</text>
  <rect x="892" y="280" width="162" height="14" rx="7" fill="#e5e7eb" />
  <rect x="892" y="280" width="162" height="14" rx="7" fill="#0ea5e9" />
  <text x="1060" y="292" fill="#111827" font-family="Segoe UI, Inter, Arial, sans-serif" font-size="14" text-anchor="end">2</text>
  <text x="776" y="328" fill="#6b7280" font-family="Segoe UI, Inter, Arial, sans-serif" font-size="14">HTML</text>
  <rect x="892" y="316" width="162" height="14" rx="7" fill="#e5e7eb" />
  <rect x="892" y="316" width="81" height="14" rx="7" fill="#0ea5e9" />
  <text x="1060" y="328" fill="#111827" font-family="Segoe UI, Inter, Arial, sans-serif" font-size="14" text-anchor="end">1</text>
  <text x="776" y="364" fill="#6b7280" font-family="Segoe UI, Inter, Arial, sans-serif" font-size="14">TypeScript</text>
  <rect x="892" y="352" width="162" height="14" rx="7" fill="#e5e7eb" />
  <rect x="892" y="352" width="81" height="14" rx="7" fill="#0ea5e9" />
  <text x="1060" y="364" fill="#111827" font-family="Segoe UI, Inter, Arial, sans-serif" font-size="14" text-anchor="end">1</text>
  <text x="776" y="400" fill="#6b7280" font-family="Segoe UI, Inter, Arial, sans-serif" font-size="14">C++</text>
  <rect x="892" y="388" width="162" height="14" rx="7" fill="#e5e7eb" />
  <rect x="892" y="388" width="81" height="14" rx="7" fill="#0ea5e9" />
  <text x="1060" y="400" fill="#111827" font-family="Segoe UI, Inter, Arial, sans-serif" font-size="14" text-anchor="end">1</text>
  <text x="776" y="436" fill="#6b7280" font-family="Segoe UI, Inter, Arial, sans-serif" font-size="14">Python</text>
  <rect x="892" y="424" width="162" height="14" rx="7" fill="#e5e7eb" />
  <rect x="892" y="424" width="81" height="14" rx="7" fill="#0ea5e9" />
  <text x="1060" y="436" fill="#111827" font-family="Segoe UI, Inter, Arial, sans-serif" font-size="14" text-anchor="end">1</text>
  <text x="48" y="528" fill="#6b7280" font-family="Segoe UI, Inter, Arial, sans-serif" font-size="13">Source: GitHub REST API + GitHub GraphQL</text>
</svg>
